<svg width="668" height="161" viewBox="0 0 668 161" fill="none" xmlns="http://www.w3.org/2000/svg">
<path d="M88.4844 44.664C89.6008 43.9 91.1203 43.1345 92.3282 42.4894C93.4055 43.1751 94.5 44.0301 95.5422 44.7921L99.9664 47.9933L115.329 59.2316L126.456 67.3235L129.87 69.7956C132.191 71.4744 133.218 71.9892 133.208 75.1463C133.202 77.1547 133.214 78.4487 131.383 79.7984C129.969 80.8398 128.519 81.8773 127.087 82.9117C124.566 84.7539 122.033 86.5789 119.488 88.3859L102.586 100.558C96.4055 105.057 90.2 109.521 83.9696 113.951C82.1313 115.253 79.8774 117.071 78.0602 118.252C77.2898 118.755 76.4221 119.091 75.5136 119.237C73.5625 119.57 71.5228 119.261 69.9229 118.048C67.7262 116.383 65.5737 114.662 63.3884 112.982L46.4143 99.8742L35.6747 91.55C33.933 90.2031 31.8752 88.7805 30.3336 87.3828C27.9162 85.1922 29.1548 82.7601 31.695 81.6109C32.2225 81.3726 32.8871 80.8211 33.4319 80.5625L33.4567 80.5336C33.4455 79.7539 33.3751 78.8351 33.5696 78.0776C33.6898 77.61 34.0421 77.126 34.4358 76.8452C35.5368 76.0602 36.6605 75.3022 37.7756 74.5355L43.9928 70.2491L62.2483 57.6195L75.465 48.4883C78.0121 46.7164 80.6 44.8396 83.2219 43.1919C83.5149 43.0077 83.9125 42.9736 84.2594 42.93C86.2235 42.683 87.0805 43.5499 88.4844 44.664Z" fill="#1A5A5A"/>
<path d="M33.4566 80.5336C33.4455 79.7539 33.3751 78.8352 33.5696 78.0777C33.6898 77.61 34.0421 77.126 34.4358 76.8453C35.5367 76.0603 36.6605 75.3022 37.7756 74.5356L43.9928 70.2491L62.2483 57.6196L75.4649 48.4883C78.012 46.7164 80.6 44.8396 83.2219 43.1919C83.5149 43.0078 83.9125 42.9736 84.2594 42.93C86.2234 42.6831 87.0805 43.5499 88.4844 44.6641C88.6391 44.8045 88.8391 44.9769 88.982 45.1222C85.1703 47.2655 84.9641 47.5924 86.6313 51.6954L89.5961 59.0568C90.007 60.1045 90.9274 62.2727 91.1375 63.2653C92.2938 68.7432 85.975 73.7903 81.832 76.4089C78.7391 78.3644 74.2461 80.268 70.8709 81.8696L57.9707 88.0399C55.1629 89.3946 52.257 90.7711 49.4994 92.2102C48.7984 92.5766 48.4184 92.7703 47.7769 93.2336C44.7441 91.0149 41.784 88.518 38.7702 86.2313C37.2984 85.1149 35.3626 83.6438 33.9895 82.3852C33.5982 82.0266 33.5838 81.1617 33.464 80.686L33.4319 80.5625L33.4566 80.5336Z" fill="#D4A03C"/>
<path d="M33.4566 80.5336C33.598 80.1586 33.5563 79.6922 33.5549 79.2781C34.4629 80.6774 37.5042 82.7438 38.9404 83.8484C41.3037 85.6938 43.6565 87.5531 45.9988 89.425C46.8938 90.1352 48.7349 91.4844 49.4994 92.2102C48.7984 92.5766 48.4184 92.7703 47.7769 93.2336C44.7441 91.0149 41.784 88.518 38.7702 86.2313C37.2984 85.1149 35.3626 83.6438 33.9895 82.3852C33.5982 82.0266 33.5838 81.1617 33.464 80.686L33.4319 80.5625L33.4566 80.5336Z" fill="#B8862F"/>
<path d="M254.4 134.536C247.573 134.536 241.259 133.299 235.456 130.824C229.653 128.349 224.576 124.893 220.224 120.456C215.872 116.019 212.459 110.813 209.984 104.84C207.595 98.8667 206.4 92.3387 206.4 85.256C206.4 78.1733 207.552 71.6453 209.856 65.672C212.245 59.6133 215.573 54.408 219.84 50.056C224.192 45.6187 229.269 42.2053 235.072 39.816C240.875 37.3413 247.189 36.104 254.016 36.104C260.843 36.104 266.944 37.256 272.32 39.56C277.781 41.864 282.389 44.936 286.144 48.776C289.899 52.5307 292.587 56.6693 294.208 61.192L278.72 68.616C276.928 63.6667 273.899 59.656 269.632 56.584C265.365 53.512 260.16 51.976 254.016 51.976C248.043 51.976 242.752 53.384 238.144 56.2C233.621 59.016 230.08 62.8987 227.52 67.848C225.045 72.7973 223.808 78.6 223.808 85.256C223.808 91.912 225.088 97.7573 227.648 102.792C230.293 107.741 233.92 111.624 238.528 114.44C243.136 117.256 248.427 118.664 254.4 118.664C259.264 118.664 263.744 117.725 267.84 115.848C271.936 113.885 275.221 111.155 277.696 107.656C280.171 104.072 281.408 99.848 281.408 94.984V87.688L289.344 94.6H254.016V79.88H298.816V89.48C298.816 96.8187 297.579 103.304 295.104 108.936C292.629 114.568 289.259 119.304 284.992 123.144C280.811 126.899 276.075 129.757 270.784 131.72C265.493 133.597 260.032 134.536 254.4 134.536ZM341.647 134.536C334.479 134.536 328.207 132.915 322.831 129.672C317.455 126.429 313.274 122.035 310.287 116.488C307.3 110.941 305.807 104.797 305.807 98.056C305.807 91.0587 307.3 84.872 310.287 79.496C313.359 74.0347 317.498 69.7253 322.703 66.568C327.994 63.4107 333.882 61.832 340.367 61.832C345.828 61.832 350.607 62.728 354.703 64.52C358.884 66.312 362.426 68.7867 365.327 71.944C368.228 75.1013 370.447 78.728 371.983 82.824C373.519 86.8347 374.287 91.1867 374.287 95.88C374.287 97.0747 374.202 98.312 374.031 99.592C373.946 100.872 373.732 101.981 373.391 102.92H319.631V90.12H363.919L355.983 96.136C356.751 92.2107 356.538 88.712 355.343 85.64C354.234 82.568 352.356 80.136 349.711 78.344C347.151 76.552 344.036 75.656 340.367 75.656C336.868 75.656 333.754 76.552 331.023 78.344C328.292 80.0507 326.202 82.6107 324.751 86.024C323.386 89.352 322.874 93.4053 323.215 98.184C322.874 102.451 323.428 106.248 324.879 109.576C326.415 112.819 328.634 115.336 331.535 117.128C334.522 118.92 337.935 119.816 341.775 119.816C345.615 119.816 348.858 119.005 351.503 117.384C354.234 115.763 356.367 113.587 357.903 110.856L371.471 117.512C370.106 120.84 367.972 123.784 365.071 126.344C362.17 128.904 358.714 130.909 354.703 132.36C350.778 133.811 346.426 134.536 341.647 134.536ZM384.438 133V63.368H400.182V77.064L398.902 74.632C400.523 70.4507 403.169 67.2933 406.838 65.16C410.593 62.9413 414.945 61.832 419.894 61.832C425.014 61.832 429.537 62.9413 433.462 65.16C437.473 67.3787 440.587 70.4933 442.806 74.504C445.025 78.4293 446.134 82.9947 446.134 88.2V133H429.366V92.168C429.366 89.096 428.769 86.4507 427.574 84.232C426.379 82.0133 424.715 80.3067 422.582 79.112C420.534 77.832 418.102 77.192 415.286 77.192C412.555 77.192 410.123 77.832 407.99 79.112C405.857 80.3067 404.193 82.0133 402.998 84.232C401.803 86.4507 401.206 89.096 401.206 92.168V133H384.438ZM475.289 133L451.353 63.368H469.017L486.553 116.232L480.409 116.104L499.097 63.368H513.945L532.505 116.104L526.361 116.232L543.897 63.368H561.561L537.625 133H522.649L503.705 77.832H509.337L490.137 133H475.289ZM599.967 134.536C592.799 134.536 586.527 132.915 581.151 129.672C575.775 126.429 571.594 122.035 568.607 116.488C565.62 110.941 564.127 104.797 564.127 98.056C564.127 91.0587 565.62 84.872 568.607 79.496C571.679 74.0347 575.818 69.7253 581.023 66.568C586.314 63.4107 592.202 61.832 598.687 61.832C604.148 61.832 608.927 62.728 613.023 64.52C617.204 66.312 620.746 68.7867 623.647 71.944C626.548 75.1013 628.767 78.728 630.303 82.824C631.839 86.8347 632.607 91.1867 632.607 95.88C632.607 97.0747 632.522 98.312 632.351 99.592C632.266 100.872 632.052 101.981 631.711 102.92H577.951V90.12H622.239L614.303 96.136C615.071 92.2107 614.858 88.712 613.663 85.64C612.554 82.568 610.676 80.136 608.031 78.344C605.471 76.552 602.356 75.656 598.687 75.656C595.188 75.656 592.074 76.552 589.343 78.344C586.612 80.0507 584.522 82.6107 583.071 86.024C581.706 89.352 581.194 93.4053 581.535 98.184C581.194 102.451 581.748 106.248 583.199 109.576C584.735 112.819 586.954 115.336 589.855 117.128C592.842 118.92 596.255 119.816 600.095 119.816C603.935 119.816 607.178 119.005 609.823 117.384C612.554 115.763 614.687 113.587 616.223 110.856L629.791 117.512C628.426 120.84 626.292 123.784 623.391 126.344C620.49 128.904 617.034 130.909 613.023 132.36C609.098 133.811 604.746 134.536 599.967 134.536ZM642.758 133V36.104H659.526V133H642.758Z" fill="#1A5A5A"/>
</svg>
